<?xml version="1.0" encoding="UTF-8"?>
<svg xmlns="http://www.w3.org/2000/svg" xmlns:xlink="http://www.w3.org/1999/xlink" width="30pt" height="30pt" viewBox="0 0 30 30" version="1.1">
<g id="surface1">
<path style=" stroke:none;fill-rule:nonzero;fill:rgb(25.882353%,52.156863%,95.686275%);fill-opacity:1;" d="M 29.984375 15.28125 C 29.984375 14.050781 29.882812 13.15625 29.660156 12.222656 L 15.296875 12.222656 L 15.296875 17.773438 L 23.730469 17.773438 C 23.558594 19.152344 22.640625 21.226562 20.601562 22.621094 L 20.574219 22.808594 L 25.113281 26.246094 L 25.429688 26.277344 C 28.320312 23.667969 29.984375 19.832031 29.984375 15.28125 "/>
<path style=" stroke:none;fill-rule:nonzero;fill:rgb(20.392157%,65.882353%,32.54902%);fill-opacity:1;" d="M 15.296875 29.898438 C 19.429688 29.898438 22.894531 28.566406 25.429688 26.277344 L 20.601562 22.621094 C 19.308594 23.503906 17.578125 24.117188 15.296875 24.117188 C 11.253906 24.117188 7.820312 21.507812 6.597656 17.90625 L 6.417969 17.917969 L 1.695312 21.492188 L 1.632812 21.660156 C 4.148438 26.542969 9.316406 29.898438 15.296875 29.898438 "/>
<path style=" stroke:none;fill-rule:nonzero;fill:rgb(98.431373%,73.72549%,1.960784%);fill-opacity:1;" d="M 6.597656 17.90625 C 6.273438 16.976562 6.085938 15.976562 6.085938 14.949219 C 6.085938 13.917969 6.273438 12.921875 6.578125 11.992188 L 6.570312 11.792969 L 1.789062 8.164062 L 1.632812 8.238281 C 0.597656 10.265625 0 12.539062 0 14.949219 C 0 17.355469 0.597656 19.632812 1.632812 21.660156 L 6.597656 17.90625 "/>
<path style=" stroke:none;fill-rule:nonzero;fill:rgb(92.156863%,26.27451%,20.784314%);fill-opacity:1;" d="M 15.296875 5.78125 C 18.171875 5.78125 20.109375 6.992188 21.214844 8.003906 L 25.53125 3.886719 C 22.878906 1.476562 19.429688 0 15.296875 0 C 9.316406 0 4.148438 3.355469 1.632812 8.238281 L 6.578125 11.992188 C 7.820312 8.386719 11.253906 5.78125 15.296875 5.78125 "/>
</g>
</svg>
